<?xml version="1.0" encoding="utf-8"?>
<!-- Generator: Adobe Illustrator 24.1.0, SVG Export Plug-In . SVG Version: 6.00 Build 0)  -->
<svg version="1.1" id="Layer_1" xmlns="http://www.w3.org/2000/svg" xmlns:xlink="http://www.w3.org/1999/xlink" x="0px" y="0px"
	 viewBox="0 0 367 96" style="enable-background:new 0 0 367 96;" xml:space="preserve">
<style type="text/css">
	.st0{fill-rule:evenodd;clip-rule:evenodd;fill:#7F4126;}
	.st1{fill:#7F4126;}
	.st2{fill:#723822;}
	.st3{fill:#F6AD6F;}
	.st4{fill:#F3BD00;}
	.st5{fill:#E99413;}
	.st6{fill:#944C30;}
	.st7{fill:#FFFFFF;}
	.st8{fill:url(#SVGID_1_);}
	.st9{fill:#421F14;}
	.st10{fill:#7FBB28;}
	.st11{fill:#231F20;}
</style>
<g>
	<g>
		<path class="st0" d="M102.1,19.5c-0.6-1.2-2.9-0.6-3.9-1.4c0.2-0.6-0.3-0.6-0.2-1.1c0.2,0,0.2-0.1,0.2-0.2
			c8.8-3.5,9,10.9,0.9,11.4c-2.6,0.1-6.6-1.6-6.6-4.6c0-1,0.8-2.6,2.3-2.5c1.8,0.1,2,3.5,5,3.2C101.8,24.1,103.1,22.2,102.1,19.5z"
			/>
		<path class="st0" d="M145.4,17.2c1.3-0.1,1.8,0.5,3,0.5c5.1,4.3,3.1,14,1.6,22.3c-0.9,4.9-2.1,9.9-2.5,13.7
			c-0.4,4.1,0.2,12.5-3.2,12.5c-1.7,0-2.2-2.7-2.3-4.8c-0.3-9.5,2-23.8,2.1-35.1C144.1,22.8,143.1,18.9,145.4,17.2z"/>
		<path class="st0" d="M81.2,18.3c1.2,3.8-0.7,7.7-0.9,11.8c-0.5,8.8-0.3,18.3,0.5,26.7c5.1-1.8,9.3-7.2,16.2-5
			c0.8,2.4,2.4,4,2.7,6.8c-2.5,1.3-5.4,1.2-8,1.8c-2.5,0.6-5,1.4-7.3,2.3c-4.6,1.8-8.6,5.5-13.7,4.8c0.2-3,2.6-3.7,3-6.6
			c0.6-4.9-0.5-11.8-1.1-18.2C72.3,40,72,36.9,71.5,34c-0.6-2.9-1.9-6.3-1.6-8c0.4-1.9,7.1-7.7,9.8-8C80.2,18,80.8,18.2,81.2,18.3z"
			/>
		<path class="st0" d="M118.5,23.3c0.9,3.5,0.4,9.1,0.2,13c2.6,0.4,5.8,0.3,5.5,3.6c-1.4,1.1-3.4,1.6-5.7,1.8
			c-0.6,7-0.2,14.4-0.9,21c-3.8,0.4-5.1-1.8-7.5-2.7c0-6.1,1.7-10.4,1.8-16.4c-0.4-0.2-2.1,0.7-3,0c-0.5-1.3-1.2-2.8-0.7-4.3
			c1.1-0.7,2.6-1.1,4.3-1.1c1.1-5,0.2-12,2.7-15.5C116.7,22.6,117.9,22.7,118.5,23.3z"/>
		<path class="st0" d="M132,23.6c0.3,0,0.6,0,0.9,0c1.2,5.2,0.3,12.3,1.6,17.3c2,0.3,5.7-1.5,6.4,0.9c0.7,2.6-2.9,4-6.2,3.9
			c-0.6,8.2,4.5,21.5-6.6,20.3c0-5.3,0.8-11.9,0.2-17.3c-3.3,1.3-6.9-0.1-6.6-2.7c0.2-2.4,3.6-2.6,6.4-3
			C128,35.9,126.3,24.8,132,23.6z"/>
		<path class="st0" d="M173.7,43.6c-3,3-9.4,2.7-13,5c-0.5,3,0.1,6.1,2.3,6.6c3.2,0.8,5.7-3.6,8.4-1.6c1,6.5-6.1,10.6-11.4,8.4
			c-3.5-1.4-4.6-6.3-6.2-10c-0.5-1.2-2-2.9-2.1-4.1c-0.1-1.2,1.2-3.2,1.6-5c1.1-4.9,2.8-11.6,6.4-13.4c2.2-1.2,6.2-1.7,8.2-0.9
			C172.4,30.4,174.2,36.7,173.7,43.6z M160.2,42.9c2.5-1,6.3-0.7,8.7-1.8c-0.1-2.7-0.4-5.2-1.8-6.6
			C162.5,34.1,159.4,37.9,160.2,42.9z"/>
		<path class="st0" d="M104.2,29.9c1.9,6.7,1,17.2,1.1,24.8c-6.8,0.3-5.9-8.3-7.1-14.6c-0.5-2.5-1.5-4.5-1.1-7.1
			C98.6,31.2,101,30.2,104.2,29.9z"/>
	</g>
	<g>
		<path class="st0" d="M284.5,42.3c4.2,0.1,7.5-7.1,12-6.7c1.3,0.1,2.3,0.9,2.5,2.5c-4.1,3.2-8.3,6.4-12.4,9.5
			c4.2,3.6,8.9,7.9,13.9,12c1.2,1,3.7,2.4,3.1,4.4c-0.4,1.1-3.5,1.7-5.2,1.3c-2.7-0.5-5.8-3.9-8.2-6.1c-2.6-2.4-4.8-5.1-7.4-6.7
			c-2.3,1.6-1.3,14-6.9,12.2c-3.4-1.1-0.1-7,0.8-9.4c0.8-2.3,1.4-4.3,1.9-6.5c-1.1-1.3-2-4.5,1.1-4.2c1.9-5.2,2.8-13.8,4.6-20
			c0.6-2.1,1.9-8.9,4.4-7.6c0.4,0.2,2.8,3.4,2.9,3.8c0.8,3.1-2.3,8.1-3.4,10.9C286.7,35.7,285.9,39,284.5,42.3z"/>
		<path class="st0" d="M206.9,52.2c1.9-2,2.9-5.4,3.9-8.4c1.1-3.3,2.3-6.4,3-9.2s0.5-5.2,2-5.7c1.9-0.6,6.1,1.8,6.6,3.2
			c0.4,1.1,0.1,3.7,0.2,5.3c0.1,1.8,0.7,4.2,0.8,6.7c0.4,5.4,0.9,8.3,2,13c0.4,1.8,1.6,4.5,0.8,5.7c-1.3,2-6.4,0.2-7.3-1.1
			c-1.1-1.7-1.1-6.2-1.4-9.4c-0.3-3.6-0.6-7-1-9.7c-1.2,1.6-1.7,3.8-2.4,5.9c-0.7,2.1-1.4,4.3-1.9,6.5c-1,4.5-1.7,9.2-3.7,12.8
			c-3.8-0.3-5-4.3-6.4-7.8c-2.6-6.3-5.7-13.5-8.6-18.9c-1.7,2.2-1.2,5.7-1.7,8.8c-0.5,3-1,6.1-1.4,9.2c-0.7,6.3-0.5,13.3-2.2,18.7
			c-2.7,1.4-7.5,1-8.1-2.1c-0.3-1.6,0.4-3.5,0.8-5.5c1.9-9,3.8-17,5.2-26c0.6-3.6,1.7-7.1,2-10.3c0.3-2.8-0.3-6.8,0.7-8.2
			c0.3-0.4,3.1-1.9,4.1-1.7c1.9,0.4,2.6,4.7,3.4,7.3c0.8,2.9,2.1,5.5,3,7.4C202.4,44.4,204,49,206.9,52.2z"/>
		<path class="st0" d="M310.2,69.6c-0.4-0.8-1.4-1.8-1.9-3.4c-0.3-1.1-0.7-3.6,0.7-3.7c1.3-0.1,0.9,1.9,1.6,2.9
			c0.8,1.3,4.4,2,6.5,1.3c6.3-1.9,9.5-10.2,12.2-15.9c-1.8-4-6.2-6.8-7.4-11.9c-0.4-1.7-0.3-4.5,1.4-4.5c1.5-0.1,3.4,4.4,4.2,5.5
			c1.5,2.2,2.6,3.9,4.4,5.4c3-4.1,4.1-10.4,7.6-14c0,0,0.1,0,0.2,0c2.1-0.3,2.1,2.9,1.9,4.7c-0.3,2.8-2.2,6.6-3.7,10.1
			c-2.8,6.4-5.4,12.6-9.7,17.9c-2,2.5-5.1,5.5-7.4,6.5C317.5,71.8,313.3,71.1,310.2,69.6z"/>
		<path class="st0" d="M252.8,32.2c3.7-0.4,5.2,1.5,4.8,5.2c2.6-2.2,2.6-4.2,5.2-5c3.6-1.1,7.5,1.1,9.4,3.1c3.8,4,4,12.6,1.7,18.7
			c-0.7,1.8-2,4.8-3.4,5.2c-2.1,0.6-4.4-0.8-4.6-1.9c-0.3-1.3,1-2.6,1.5-3.8c1.6-3.6,5.5-15.4-1.5-15.7c-4.4-0.1-6.8,5.4-7.4,9.5
			c-0.6,3.3,0.5,8.6-1.1,10.1c-0.8,0.7-3.8,0.8-4.8-0.2c-1.2-1.3,0-5.3,0.2-8c0.2-2.5,0.6-5.9,0.4-8.6c-0.2-2.6-1.3-6.5-0.6-8
			C252.4,32.5,252.6,32.3,252.8,32.2z"/>
		<path class="st0" d="M246.7,33.4c-0.1,2.7,1.6,2.7,2.3,4.6c3.7,9.6-2.9,22.7-12,22.7c-5.8,0-9.2-4.1-9.7-9.4
			c-0.6-5.8,2-10.7,5.5-13.6C236.3,34.9,241.9,31.6,246.7,33.4z M238.7,38.1c-3.4,1.3-8,14.1-2.1,16.2c8.2,3,12.6-16.4,4.2-16.4
			C240.3,37.9,239.3,37.9,238.7,38.1z"/>
		<path class="st0" d="M307.2,52.4c0.8,2.5,1.4,3.5,3.2,3.8c3.1,0.6,4.6-2.4,6.7-2.3c4.3,0.2,0.6,5.7-1.1,6.7
			c-5.6,3-13.4-1.9-14.5-6.5c-1.3-0.4-2.5-0.5-2.9-1.5c-0.5-1.7,0.8-2.5,1-3.4c0.2-1.3-0.3-2.9-0.2-4.2c0.4-5.5,2.7-10.8,8.2-11.5
			c6-0.8,12,3.5,11.1,12.6C315.5,48.8,310.9,50.2,307.2,52.4z M307.2,41c-1.1,1.5-1.1,4-0.8,6.1c2.3-0.5,4.2-1.9,6.3-2.7
			c0.9-0.3,2.1-0.1,2.5-1.1C314.4,39.1,309.9,37.3,307.2,41z"/>
		<path class="st1" d="M351.9,32.2c0-0.5,0-0.9,0.2-1.2c0.2-0.2,0.5-0.4,0.9-0.5c0.2,0.4,0.6,0.7,1.3,1.1c0.7,0.4,1.1,0.3,1.3-0.1
			c0.2-0.5,0.3-0.9,0.3-1.3s-0.1-0.8-0.3-1.1c-0.3-0.6-0.8-1.1-1.4-1.4s-1-0.5-1.4-0.5c-0.8-0.1-1.4,0.4-1.9,1.5s-0.9,2.1-1,3.1
			c-0.1,1,0,2,0.6,2.9c0.5,1,1.2,2,2,3.1c1,1.3,2,2.6,3.2,4c1.1,1.4,2.1,2.9,2.9,4.5c0.4,0.9,0.7,1.8,0.9,2.8
			c0.2,0.9,0.3,1.9,0.3,2.9l0,0c-0.1,1.1-0.3,2.3-0.6,3.5c-0.3,1.2-0.8,2.3-1.4,3.4c-1.1,2-2.7,3.7-4.7,5c-1.7,1.2-3.7,1.7-6,1.6
			c-0.4,0-0.7-0.1-1.1-0.1c-1-0.1-2-0.6-2.9-1.4c-0.9-0.8-1.7-1.7-2.4-2.9c-1-1.7-1.7-3.6-2-5.7c-0.1-0.6-0.1-1.2-0.1-1.8
			c0.1-1.3,0.5-2.5,1.2-3.6c0.5-0.8,1.3-1.5,2.3-2s2.3-0.8,3.9-0.8c0.6,0,1.2,0.1,1.7,0.3s0.9,0.5,1.3,0.8c0.8,0.8,1.3,1.7,1.3,2.9
			s-0.4,2-1.4,2.6c-0.5,0.1-0.9,0-1.3-0.3s-0.6-0.7-0.5-1.1c0.8-0.2,0.8-0.9,0.2-2.1c-0.7-1.2-1.2-1.8-1.6-1.8
			c-1.2,0-1.9,0.6-2.4,1.8s-0.7,2.6-0.6,4.1c0.1,1.9,0.4,3.8,1.1,5.5c0.7,1.8,1.5,2.8,2.5,3.1c0.8,0.2,1.8-0.3,2.9-1.5
			c1.2-1.2,2.2-2.5,3.1-4.1c0.6-1,1.1-2,1.6-2.9s0.7-1.6,0.9-2.2c0.2-0.9,0.1-1.8-0.4-2.9c-0.5-1.1-1.1-2.2-2-3.3
			c-0.5-0.8-1.1-1.6-1.7-2.4c-0.6-0.8-1.2-1.6-1.9-2.5c-1.1-1.6-2.2-3.2-3.1-4.9s-1.4-3.4-1.5-5.1c0-0.8,0.1-1.4,0.3-2
			c0.3-0.6,0.7-1.2,1.2-1.6c0.9-0.9,2-1.5,3.4-1.9c1.1-0.3,2.2-0.5,3.2-0.4c0.2,0,0.4,0,0.6,0.1c1.4,0.2,2.6,0.8,3.6,2.1
			c1,1.2,1.3,2.6,0.9,4c-0.2,0.6-0.4,1-0.8,1.4c-0.3,0.3-0.7,0.5-1.1,0.6c-0.7,0.2-1.4,0.2-2.2-0.1C352.5,33,352.1,32.6,351.9,32.2z
			"/>
	</g>
</g>
<g>
	<g>
		<path class="st2" d="M44.9,9.1c0.3-0.7,0.7-1.3,1.1-1.8c0.7-0.8,1.5-1.3,2.4-1.5s1.9-0.2,2.8,0.2c1.1,0.4,2,1.3,2.6,2.4
			c0.6,1.2,0.9,2.6,0.9,4.3c0,0.7-0.6,1.2-1.3,1.2s-1.2-0.6-1.2-1.3c0-1.4-0.2-2.4-0.6-3.1c-0.2-0.4-0.4-0.6-0.6-0.8
			c-0.2-0.2-0.5-0.4-0.7-0.5C50,8.1,49.8,8,49.5,8.1c-0.4,0-0.8,0.2-1.2,0.5s-0.8,0.8-1.1,1.5c-0.2,0.6-0.4,1.3-0.4,2.1
			c0,0.9,0.1,1.9,0.3,3c2.4,10.8,3,18.3,2.8,23.3s-1,7.5-1.3,8.2c0,0.1-0.1,0.2-0.1,0.2c-0.3,0.6-1,0.9-1.6,0.6
			c-0.6-0.3-0.9-1-0.6-1.6l0,0c0,0,0,0,0-0.1c0.2-0.4,1-2.6,1.1-7.4s-0.3-12.1-2.8-22.7c-0.3-1.3-0.4-2.6-0.4-3.7
			C44.4,11,44.6,10,44.9,9.1L44.9,9.1z"/>
		<path class="st1" d="M41.8,67.9c-0.2,0.1-0.4-0.1-0.5-0.2l-0.7-0.8c-0.1-0.2-0.3-0.4-0.4-0.6c-1.1-1.6-1.8-3.3-2.1-5
			c-0.3-1.4-0.4-2.8-0.3-4c0-1.3,0.2-2.4,0.5-3.5c0.5-2,1.1-3.3,1.1-3.3L39,50.3c0.2,0.1,0.3,0.1,0.4,0.2h0.1c0,0,0,0-0.1,0L39,50.3
			l0,0c-0.7-0.3-2-1-2-1s-0.4,0.9-0.9,2.3c-0.4,1.4-0.9,3.3-1,5.5c-0.1,1.5,0,3.1,0.4,4.8c0.4,1.8,1.1,3.6,2.2,5.4
			c0.2,0.3,1,1.7,1.3,2.2c0.1,0.2,0.2,0.4,0.3,0.6c0.2,0.5,0.3,1.1,0.2,1.5l-0.6,3.2c-0.3,2.5,1,0.9,1,0.9c-0.1,1.9,1.2-0.1,1.2-0.1
			c0.1,2.7,1.4-0.2,1.4-0.2c0,0.4,0,1.3,0.6,1.5c0.9,0.2,1.1-1.3,1.1-1.8c-0.2-1.8,0-3.4,0.1-5.1C44.4,68.3,43.6,67.2,41.8,67.9z"/>
		<path class="st1" d="M52.2,63.4c0.2,0,0.3-0.3,0.3-0.5v-1.1c0-0.2,0-0.5,0-0.7c0-2-0.5-3.7-1.1-5.3c-0.6-1.3-1.3-2.5-2.1-3.5
			s-1.6-1.9-2.4-2.5c-1.5-1.4-2.8-2.1-2.8-2.1l0.2-0.4c-0.1,0.2-0.2,0.3-0.2,0.3v0.1c0,0,0,0,0-0.1l0.2-0.4l0,0c0.4-0.7,1.1-2,1.1-2
			s0.9,0.5,2,1.3c1.1,0.9,2.6,2.2,4,4c0.9,1.2,1.8,2.6,2.4,4.2c0.7,1.7,1.2,3.6,1.3,5.7c0,0.4,0.2,1.9,0.2,2.6
			c0,0.2,0.1,0.4,0.1,0.6c0.1,0.5,0.4,1.1,0.7,1.4l2.4,2.3c1.7,1.9-0.3,1.3-0.3,1.3c1.2,1.6-1.1,0.6-1.1,0.6
			c1.4,2.3-1.2,0.6-1.2,0.6c0.2,0.4,0.8,1.1,0.4,1.6c-0.6,0.7-1.7-0.4-1.9-0.8c-0.9-1.5-2-2.8-3.1-4.1
			C50.4,65.1,50.4,63.8,52.2,63.4z"/>
		<g>
			<path class="st1" d="M22.9,42.7c4.6-1.5,9.1-3.6,12.5-5.2c3.4-1.7,5.7-3,5.7-3L39.7,32l0,0c-0.1,0.1-2.4,1.4-5.7,3s-7.7,3.6-12,5
				c-1.9,0.6-3.9,1.2-5.6,1.5c-1.8,0.3-3.4,0.4-4.8,0.3l-0.3,2.9c1.7,0.2,3.6,0,5.5-0.3C18.8,43.9,20.9,43.4,22.9,42.7z"/>
		</g>
		<path class="st2" d="M44.7,54.6c4.1-2.2,5.1-8.1,2.3-13.4s-8.3-7.9-12.4-5.7s-5,8.1-2.3,13.4C35.1,54.1,40.6,56.7,44.7,54.6z"/>
		<path class="st1" d="M44.5,53.9c3.7-1.9,4.5-7.5,1.7-12.6s-8-7.7-11.7-5.8S30,43,32.8,48.1C35.5,53.2,40.8,55.8,44.5,53.9z"/>
		<path class="st3" d="M44.8,52.1c1.9-2.1,1.2-5.7-1.5-8.1c-2.6-2.4-6.3-2.6-8.1-0.4c-1.9,2.1-1.2,5.7,1.5,8.1
			C39.4,54,43,54.2,44.8,52.1z"/>
		<g>
			<path class="st4" d="M11.1,34.2c-0.9,0.8-2,2.1-2.4,4.2c0,0,0,0.1-0.1,0.4c-0.2,1.1-0.3,4.4,3.1,7.7c0.4,0.4,0.8,0.8,1.3,1.1
				c0.4,0.3,1.1,0.6,1.9,0.7c0.5,0.1,1.1,0.1,1.7,0c0.4-0.1,0.7-0.1,1.1,0l1.5,0.2c0,0,0,0,0.1,0s0.2,0,0.3,0.1c0.1,0,0.3,0,0.4,0
				s0.2-0.2,0.2-0.3s0-0.1,0-0.2c0-0.1,0-0.1-0.1-0.2c-0.1-0.1-0.2-0.1-0.4-0.1c-0.1,0-1.3-0.3-1.3-0.3l0,0
				c-0.5-0.1-0.8-0.5-1.1-0.9c-0.3-0.4-0.7-0.7-1.2-1.1c-0.8-0.5-1.5-1.2-2-1.9c-0.9-1.1-1.4-2.5-1.5-4c0-0.7,0-1.4,0.1-2.1
				c0.1-0.6,0.2-1.2,0.4-1.8c0.1-0.4,0.2-0.8,0.4-1.2c0-0.1,0-0.1,0.1-0.3c0-0.1,0-0.3,0-0.4c0-0.1-0.1-0.2-0.2-0.3
				c-0.1-0.1-0.2-0.2-0.3-0.2l0,0c-0.1,0-0.2,0-0.3,0C12.8,33.2,12,33.4,11.1,34.2z"/>
			<g>
				<path class="st5" d="M11.1,34.2c-0.9,0.8-2,2.1-2.4,4.2c0,0,0,0.1-0.1,0.4c-0.2,1.1-0.3,4.4,3.1,7.7c0.4,0.4,0.8,0.8,1.3,1.1
					c0.4,0.3,1.1,0.6,1.9,0.7c0.5,0.1,1.1,0.1,1.7,0c0.4-0.1,0.7-0.1,1.1,0l1.5,0.2c0,0,0,0,0.1,0s0.2,0,0.3,0.1c0.1,0,0.3,0,0.4,0
					s0.2-0.2,0.2-0.3s0-0.1,0-0.2c0-0.1,0-0.1-0.1-0.2c-0.1-0.1-0.2-0.1-0.4-0.1c-0.1,0-1.3-0.3-1.3-0.3l0,0
					c-0.5-0.1-0.8-0.5-1.1-0.9c-0.3-0.4-0.7-0.7-1.2-1.1c-0.8-0.5-1.5-1.2-2-1.9c-0.9-1.1-1.4-2.5-1.5-4c0-0.7,0-1.4,0.1-2.1
					c0.1-0.6,0.2-1.2,0.4-1.8c0.1-0.4,0.2-0.8,0.4-1.2c0-0.1,0-0.1,0.1-0.3c0-0.1,0-0.3,0-0.4c0-0.1-0.1-0.2-0.2-0.3
					c-0.1-0.1-0.2-0.2-0.3-0.2l0,0c-0.1,0-0.2,0-0.3,0C12.8,33.2,12,33.4,11.1,34.2z M13.1,33.3c0.1,0,0.2,0.1,0.3,0.1
					c0.1,0.1,0.1,0.2,0.2,0.3c0,0,0,0.2,0,0.3s0,0.2-0.1,0.2c-0.1,0.4-0.3,0.8-0.4,1.2c-0.2,0.6-0.3,1.2-0.4,1.8
					c-0.1,0.7-0.2,1.4-0.1,2.1c0,1.5,0.6,2.9,1.5,4c0.6,0.7,1.3,1.4,2,1.9c0.5,0.3,0.8,0.6,1.2,1c0.3,0.4,0.6,0.8,1.2,1v-0.1v0.1
					c0,0,0.3,0.1,0.6,0.2c0.3,0.1,0.6,0.2,0.6,0.2l0,0l0,0l0,0l0,0c0.2,0,0.3,0.1,0.3,0.1c0.1,0,0.1,0.1,0.1,0.1c0,0.1,0,0.1,0,0.2
					c0,0.1-0.1,0.2-0.1,0.2c-0.1,0-0.2,0-0.3,0c-0.1,0-0.2,0-0.3-0.1h-0.1l-1.5-0.2c-0.4,0-0.7,0-1.1,0.1c-0.6,0.1-1.2,0.1-1.7,0
					c-1,0-1.6-0.3-2-0.5c-0.5-0.3-0.9-0.7-1.2-1.1c-3.3-3.3-3.2-6.6-3-7.6c0-0.1,0-0.2,0-0.3s0-0.1,0-0.1l0,0l0,0
					c0.5-2.1,1.5-3.4,2.4-4.1c0.5-0.4,0.9-0.6,1.2-0.8c0.2-0.1,0.3-0.1,0.4-0.2h0.1l0,0C12.9,33.3,13,33.3,13.1,33.3z"/>
				<path class="st5" d="M12.4,35.5c-0.3,0.8-0.4,1.7-0.5,2.5c-0.2,1.3-0.2,2.3-0.2,2.3c0,3,1.6,4.8,3.2,5.8c1.7,1,3.4,1.3,3.6,1.3
					l0,0v-0.1l0,0c-0.2,0-1.9-0.3-3.5-1.3s-3.2-2.7-3.2-5.7c0,0,0-0.2,0-0.7c0-0.4,0.1-1,0.2-1.6c0.1-0.8,0.3-1.7,0.5-2.5
					c0.3-0.8,0.6-1.5,1-1.9l-0.1-0.1C13,34,12.6,34.7,12.4,35.5z"/>
				<path class="st5" d="M11.2,35.5c-0.5,0.9-0.9,2-1,3.1c-0.2,1.3-0.1,2.6,0.2,3.7c0.8,2.5,2.2,3.9,3.6,4.7
					c1.3,0.8,2.6,1.1,2.9,1.1c0.1,0,0.1,0,0.1,0V48c0,0,0,0-0.1,0c-0.3-0.1-1.6-0.3-2.9-1.1s-2.7-2.2-3.5-4.7
					c-0.3-1.1-0.4-2.4-0.2-3.7c0.2-1.1,0.5-2.2,1-3.1c0.6-0.9,1.2-1.8,1.9-2.1l-0.1-0.1C12.5,33.6,11.8,34.5,11.2,35.5z"/>
			</g>
		</g>
		<g>
			<path class="st1" d="M32,52.7c2.4-4.1,4.5-8.7,6-12.2s2.3-6,2.3-6.1l-2.7-0.9l0,0c0,0.1-0.9,2.6-2.3,6c-1.4,3.4-3.4,7.8-5.7,11.7
				c-1,1.8-2.1,3.4-3.3,4.8c-1.1,1.4-2.3,2.6-3.4,3.4l1.7,2.3c1.4-1,2.7-2.4,3.9-3.9C29.7,56.3,30.9,54.6,32,52.7z"/>
		</g>
		<path class="st6" d="M10.3,45.9c-0.9-0.1-1.6-1-1.8-2c-0.1-0.7,0-1.5,0.4-2c0.2-0.3,0.7-1.1,1.8-1.5c0.7-0.3,1.2,0,1.4,0.4
			c0.3,0.6-0.7,0.9,0,0.8c0.6-0.1,1,0.6,1,1c-0.1,0.4-0.5,0.6-0.9,0.6c0.5,0.2,0.9,0.6,0.8,1c-0.1,0.4-0.5,0.6-0.9,0.6
			c0.4,0.2,0.6,0.5,0.5,0.8s-0.3,0.5-0.7,0.5c-0.2,0-0.9,0-1.1-0.1C10.6,46,10.4,45.9,10.3,45.9z"/>
		<path class="st6" d="M23.1,57.8c0.9-0.3,1.9,0.2,2.5,1.1c0.4,0.6,0.6,1.4,0.5,2c0,0.4-0.2,1.3-1,2.1c-0.6,0.5-1.1,0.5-1.4,0.2
			c-0.5-0.4,0.2-1.1-0.3-0.7c-0.5,0.3-1.2-0.1-1.3-0.5c-0.1-0.3,0.2-0.7,0.6-0.9c-0.5,0.1-1-0.2-1.1-0.5c-0.1-0.4,0.2-0.7,0.6-0.9
			c-0.4,0-0.7-0.2-0.8-0.6c-0.1-0.3,0.1-0.6,0.4-0.8c0.1-0.1,0.9-0.4,1-0.4C22.9,57.8,23,57.8,23.1,57.8z"/>
		<g>
			<path class="st2" d="M16.6,26c-1.2,0.5-1.7,1.9-1.1,3.3c0.5,1.4,1.9,2.2,3.1,1.7s1.8-2,1.2-3.4C19.3,26.3,17.9,25.5,16.6,26z"/>
			<path class="st3" d="M17,27c-0.8,0.3-1,1.2-0.7,2.1s1.2,1.4,1.9,1.1c0.8-0.3,1.1-1.2,0.8-2.1C18.7,27.2,17.8,26.7,17,27z"/>
			<path class="st2" d="M44,32.7c-0.8-1-2.4-1-3.6-0.1c-1.1,1-1.4,2.6-0.5,3.5c0.8,1,2.4,0.9,3.5,0C44.6,35.3,44.9,33.7,44,32.7z"/>
			<path class="st3" d="M43.2,33.5c-0.5-0.6-1.5-0.6-2.3,0c-0.7,0.6-0.9,1.6-0.3,2.2c0.5,0.6,1.5,0.6,2.2,0
				C43.5,35,43.7,34.1,43.2,33.5z"/>
			<path class="st2" d="M32.4,20.3c-6.5-1.6-12.7,1.2-14,6.5c-1.3,5.2,2.9,10.8,9.3,12.4c6.5,1.6,12.8-1.3,14.1-6.5
				C43.1,27.4,38.8,21.9,32.4,20.3z"/>
			<path class="st1" d="M32.2,21.1c-6.2-1.6-12.1,1.2-13.4,6.2s2.7,10.3,8.9,11.9S39.9,38,41.2,33C42.5,27.9,38.4,22.7,32.2,21.1z"
				/>
			<path class="st3" d="M40.2,29.5c-0.5-1.9-1.4-3.4-3.6-3.9c-4.2-1.1-6,2.1-6,2.1s-0.2-3.4-5.1-4.6c-1.9-0.5-3.5,0.5-4.5,2
				c-1.2,1.8-0.7,3.3-0.7,3.3s-2.6,2.8,1.4,7.1c1.4,1.5,3.6,2.5,6,3.1c3.6,0.9,7.1,0.5,9.5-0.9c2.3-1.4,1.8-4.3,1.8-4.3
				S40.8,31.9,40.2,29.5z"/>
			<ellipse class="st7" cx="24.1" cy="29.2" rx="1.7" ry="1.7"/>
			<ellipse class="st7" cx="35.8" cy="31.8" rx="1.7" ry="1.7"/>
			
				<radialGradient id="SVGID_1_" cx="109.589" cy="218.7209" r="3.1234" gradientTransform="matrix(0.9682 -0.2503 -0.2503 -0.9682 -22.442 272.0989)" gradientUnits="userSpaceOnUse">
				<stop  offset="0" style="stop-color:#F08C67"/>
				<stop  offset="0.3331" style="stop-color:#F39D6B"/>
				<stop  offset="0.687" style="stop-color:#F5A96E"/>
				<stop  offset="1" style="stop-color:#F6AD6F"/>
			</radialGradient>
			<path class="st8" d="M32.7,33.5c0.2-1.2-1.3-2.5-3.4-2.8s-3.9,0.4-4.1,1.6c-0.2,1.2,1.3,2.5,3.4,2.8
				C30.6,35.4,32.5,34.7,32.7,33.5z"/>
			<g>
				<ellipse class="st9" cx="24" cy="29.1" rx="0.9" ry="0.9"/>
				<circle class="st7" cx="24.4" cy="28.9" r="0.2"/>
			</g>
			<g>
				<ellipse class="st9" cx="35.9" cy="31.9" rx="0.8" ry="0.8"/>
				<circle class="st7" cx="36.2" cy="31.7" r="0.2"/>
			</g>
			<path class="st9" d="M28.2,32.5c-0.3-0.2-0.6-0.3-0.7-0.1s-0.1,0.4,0.2,0.4c0.2,0,0.3-0.1,0.7,0.4C28.5,33.3,28.4,32.7,28.2,32.5
				z M30.9,33.3c0-0.2-0.4-0.3-0.7-0.3c-0.3,0.1-0.7,0.6-0.5,0.5c0.6-0.3,0.7-0.1,0.9,0C30.8,33.6,30.9,33.5,30.9,33.3z"/>
			<circle class="st9" cx="27.7" cy="36.5" r="0.6"/>
		</g>
	</g>
	<path class="st10" d="M71.5,0c-6.5,6.4-19,10.7-33.4,10.7S11.2,6.4,4.7,0H2.9c6.5,7.2,19.9,12.2,35.3,12.2S67,7.2,73.5,0H71.5z"/>
	<path class="st2" d="M47.6,9.3C47.8,9,48,8.8,48.3,8.6c0.4-0.3,0.8-0.5,1.2-0.5c0.3,0,0.6,0,0.8,0.1s0.5,0.2,0.7,0.5
		c0.2,0.2,0.4,0.5,0.6,0.8c0.4,0.7,0.6,1.7,0.6,3.1c0,0.7,0.5,1.2,1.2,1.3c0.7,0,1.2-0.5,1.3-1.2c0-1.7-0.3-3.2-0.9-4.3
		c-0.6-1.2-1.5-2-2.6-2.4c-0.9-0.4-1.9-0.4-2.8-0.2C47.5,6,46.6,6.6,46,7.3c-0.3,0.4-0.7,0.8-0.9,1.4L47.6,9.3z"/>
</g>
<g>
	<path class="st11" d="M349.6,92.3H79.4c-5.2,0-9.5-4.2-9.5-9.5v-0.4c0-5.2,4.2-9.5,9.5-9.5h270.1c5.2,0,9.5,4.2,9.5,9.5v0.4
		C359.1,88,354.8,92.3,349.6,92.3z"/>
	<g>
		<path class="st7" d="M90.8,80.8c0,0.4-0.1,0.7-0.2,1.1c-0.1,0.3-0.3,0.7-0.6,1c-0.3,0.3-0.6,0.5-1,0.7c-0.4,0.2-0.9,0.3-1.5,0.3
			h-1.8v3.7H83v-9.9h4.5c0.6,0,1.1,0.1,1.5,0.3c0.4,0.2,0.8,0.4,1,0.7c0.3,0.3,0.4,0.6,0.6,1C90.8,80.1,90.8,80.5,90.8,80.8z
			 M88.1,80.9c0-0.5-0.1-0.8-0.4-1c-0.3-0.2-0.7-0.3-1.4-0.3h-0.6V82h0.6c0.5,0,0.8,0,1-0.1c0.2-0.1,0.4-0.2,0.5-0.3
			C88,81.4,88.1,81.2,88.1,80.9z"/>
		<path class="st7" d="M100.5,87.6h-6.8v-9.9h2.7v7.5h4.1V87.6z"/>
		<path class="st7" d="M113.1,87.6h-2.8l-0.7-2h-3.9l-0.7,2h-2.8l4-9.9h3L113.1,87.6z M109,83.9l-1.3-3.6l-1.3,3.6H109z"/>
		<path class="st7" d="M123.1,77.7l-3.5,5.4v4.5h-2.7v-4.5l-3.6-5.4h2.8l2.1,3.1l2.1-3.1H123.1z"/>
		<path class="st7" d="M137.3,84.8c0,0.6-0.1,1.2-0.4,1.6c-0.3,0.5-0.7,0.8-1.2,1s-1.1,0.4-1.8,0.4c-0.2,0-0.4,0-0.7,0
			c-0.3,0-0.6-0.1-1.1-0.2c-0.4-0.1-0.9-0.3-1.4-0.5v-2.4c0.5,0.3,0.9,0.6,1.3,0.8c0.4,0.2,0.9,0.3,1.4,0.3c0.5,0,0.8-0.1,0.9-0.3
			c0.1-0.2,0.2-0.3,0.2-0.5c0-0.3-0.1-0.5-0.4-0.7c-0.2-0.2-0.6-0.4-1-0.6c-0.5-0.2-0.9-0.5-1.3-0.7c-0.4-0.3-0.7-0.6-0.9-1
			s-0.4-0.9-0.4-1.4c0-0.5,0.1-1,0.4-1.4c0.2-0.4,0.6-0.8,1.1-1c0.5-0.3,1.1-0.4,1.8-0.4c0.5,0,1,0.1,1.4,0.2
			c0.4,0.1,0.8,0.2,1.1,0.4c0.3,0.1,0.5,0.2,0.6,0.3v2.3c-0.4-0.3-0.8-0.5-1.2-0.8c-0.5-0.2-0.9-0.3-1.5-0.3c-0.3,0-0.6,0.1-0.7,0.2
			s-0.2,0.3-0.2,0.5c0,0.2,0.1,0.4,0.2,0.5c0.2,0.1,0.4,0.3,0.8,0.5c0.7,0.4,1.2,0.7,1.7,1c0.4,0.3,0.7,0.6,1,1
			C137.2,83.7,137.3,84.2,137.3,84.8z"/>
		<path class="st7" d="M148.5,86.9c-0.4,0.2-0.8,0.4-1.1,0.5s-0.8,0.2-1.2,0.3c-0.4,0.1-0.8,0.1-1.2,0.1c-0.8,0-1.5-0.1-2.1-0.4
			s-1.2-0.6-1.6-1.1c-0.5-0.5-0.8-1-1-1.6c-0.2-0.6-0.3-1.3-0.3-2c0-0.9,0.1-1.6,0.4-2.2c0.3-0.6,0.6-1.2,1.1-1.6s1-0.7,1.7-0.9
			c0.6-0.2,1.3-0.3,2-0.3c1,0,2.2,0.2,3.5,0.8V81c-0.4-0.3-0.9-0.6-1.3-0.8c-0.4-0.2-0.9-0.3-1.5-0.3c-0.5,0-1,0.1-1.5,0.3
			c-0.5,0.2-0.8,0.6-1.1,1c-0.3,0.4-0.4,0.9-0.4,1.5c0,0.5,0.1,1,0.4,1.4c0.2,0.4,0.6,0.7,1,1c0.4,0.2,0.9,0.4,1.5,0.4
			c0.4,0,0.9-0.1,1.2-0.2c0.4-0.1,0.7-0.2,1-0.4c0.3-0.1,0.5-0.3,0.8-0.5V86.9z"/>
		<path class="st7" d="M161.2,87.6h-2.7v-3.9h-4.1v3.9h-2.7v-9.9h2.7v3.6h4.1v-3.6h2.7V87.6z"/>
		<path class="st7" d="M174.4,82.7c0,0.9-0.2,1.8-0.6,2.5c-0.4,0.8-1,1.4-1.7,1.9c-0.8,0.5-1.7,0.7-2.8,0.7c-1.1,0-2.1-0.2-2.8-0.7
			c-0.8-0.5-1.3-1.1-1.7-1.9s-0.6-1.6-0.6-2.5c0-0.9,0.2-1.7,0.6-2.5c0.4-0.8,0.9-1.4,1.7-1.9s1.7-0.7,2.8-0.7
			c0.8,0,1.6,0.1,2.2,0.4s1.2,0.6,1.6,1.1c0.4,0.5,0.7,1,1,1.6C174.3,81.3,174.4,82,174.4,82.7z M171.7,82.7c0-0.4-0.1-0.7-0.1-1
			c-0.1-0.3-0.3-0.6-0.5-0.8c-0.2-0.2-0.4-0.4-0.7-0.5c-0.3-0.1-0.6-0.2-1-0.2c-0.7,0-1.3,0.2-1.7,0.7c-0.4,0.5-0.6,1.1-0.6,1.8
			s0.2,1.4,0.6,1.8c0.4,0.5,1,0.7,1.7,0.7c0.5,0,0.9-0.1,1.3-0.3c0.4-0.2,0.6-0.5,0.8-0.9C171.6,83.6,171.7,83.2,171.7,82.7z"/>
		<path class="st7" d="M187.1,82.7c0,0.9-0.2,1.8-0.6,2.5c-0.4,0.8-1,1.4-1.7,1.9c-0.8,0.5-1.7,0.7-2.8,0.7c-1.1,0-2.1-0.2-2.8-0.7
			c-0.8-0.5-1.3-1.1-1.7-1.9s-0.6-1.6-0.6-2.5c0-0.9,0.2-1.7,0.6-2.5c0.4-0.8,0.9-1.4,1.7-1.9s1.7-0.7,2.8-0.7
			c0.8,0,1.6,0.1,2.2,0.4s1.2,0.6,1.6,1.1c0.4,0.5,0.7,1,1,1.6C187,81.3,187.1,82,187.1,82.7z M184.3,82.7c0-0.4,0-0.7-0.1-1
			c-0.1-0.3-0.2-0.6-0.5-0.8c-0.2-0.2-0.4-0.4-0.7-0.5c-0.3-0.1-0.6-0.2-1-0.2c-0.7,0-1.3,0.2-1.7,0.7c-0.4,0.5-0.6,1.1-0.6,1.8
			s0.2,1.4,0.6,1.8c0.4,0.5,1,0.7,1.7,0.7c0.5,0,0.9-0.1,1.3-0.3c0.4-0.2,0.6-0.5,0.8-0.9C184.3,83.6,184.3,83.2,184.3,82.7z"/>
		<path class="st7" d="M197,87.6h-6.8v-9.9h2.7v7.5h4.1V87.6z"/>
		<path class="st7" d="M214.2,87.6h-3.1l-0.6-0.7c-0.4,0.3-0.8,0.5-1.3,0.6c-0.5,0.1-1,0.2-1.5,0.2c-1,0-1.8-0.2-2.3-0.8
			s-0.8-1.1-0.8-1.8c0-0.5,0.1-0.9,0.4-1.3c0.3-0.4,0.8-0.9,1.6-1.5c-0.2-0.3-0.4-0.5-0.6-0.7s-0.3-0.5-0.3-0.7
			c-0.1-0.2-0.1-0.5-0.1-0.7c0-0.5,0.1-0.9,0.4-1.3c0.2-0.4,0.6-0.7,1.1-1c0.5-0.2,1-0.4,1.6-0.4c0.5,0,0.9,0.1,1.2,0.2
			s0.7,0.4,0.9,0.6c0.2,0.2,0.4,0.5,0.5,0.8c0.1,0.3,0.2,0.6,0.2,0.8c0,0.5-0.2,1-0.5,1.4c-0.3,0.4-0.7,0.8-1.3,1.1L211,84
			c0.4-0.4,0.7-0.9,1-1.4h2.2c-0.6,1.2-1.2,2.1-1.9,2.9L214.2,87.6z M209.4,85.6l-1.6-1.8c-0.6,0.4-0.9,0.8-0.9,1.2
			c0,0.2,0.1,0.5,0.3,0.7s0.5,0.4,0.9,0.4C208.6,86,209,85.9,209.4,85.6z M209.8,80.1c0-0.1,0-0.3-0.1-0.4c-0.1-0.1-0.2-0.2-0.3-0.3
			s-0.3-0.1-0.5-0.1c-0.3,0-0.5,0.1-0.7,0.3s-0.2,0.3-0.2,0.5c0,0.1,0,0.3,0.1,0.4c0.1,0.1,0.2,0.3,0.3,0.4c0.1,0.2,0.3,0.3,0.4,0.5
			C209.4,81,209.8,80.6,209.8,80.1z"/>
		<path class="st7" d="M232.7,87.6h-2.8l-0.7-2h-3.9l-0.7,2h-2.8l4-9.9h3L232.7,87.6z M228.5,83.9l-1.3-3.6l-1.3,3.6H228.5z"/>
		<path class="st7" d="M241.7,83.6h-3.7v4h-2.7v-9.9h6.5v2h-3.7v1.9h3.7V83.6z"/>
		<path class="st7" d="M253.5,80.1h-3.3v7.5h-2.7v-7.5h-3.3v-2.4h9.3V80.1z"/>
		<path class="st7" d="M263.2,87.6h-6.8v-9.9h6.7v2h-4v1.8h3.8v2h-3.8v2.1h4.1V87.6z"/>
		<path class="st7" d="M275.1,87.6h-2.9l-0.7-1.8c-0.3-0.6-0.5-1.1-0.7-1.4c-0.2-0.3-0.4-0.5-0.6-0.6c-0.2-0.1-0.5-0.1-0.8-0.1h-0.3
			v3.9h-2.7v-9.9h4.6c0.7,0,1.4,0.2,1.8,0.5c0.5,0.3,0.8,0.7,1,1.2c0.2,0.5,0.3,0.9,0.3,1.4c0,0.5-0.1,0.9-0.3,1.3
			c-0.2,0.3-0.4,0.6-0.6,0.8c-0.2,0.2-0.4,0.3-0.7,0.5c0.3,0.2,0.5,0.4,0.7,0.7s0.4,0.8,0.8,1.5L275.1,87.6z M271.4,80.9
			c0-0.5-0.1-0.8-0.4-1c-0.3-0.2-0.7-0.3-1.3-0.3h-0.6V82h0.6c0.7,0,1.1-0.1,1.4-0.2C271.2,81.6,271.4,81.3,271.4,80.9z"/>
		<path class="st7" d="M289.2,84.8c0,0.6-0.1,1.2-0.4,1.6s-0.7,0.8-1.2,1c-0.5,0.2-1.1,0.4-1.8,0.4c-0.2,0-0.4,0-0.7,0
			c-0.3,0-0.6-0.1-1.1-0.2c-0.4-0.1-0.9-0.3-1.4-0.5v-2.4c0.5,0.3,0.9,0.6,1.3,0.8c0.4,0.2,0.9,0.3,1.4,0.3c0.5,0,0.8-0.1,0.9-0.3
			s0.2-0.3,0.2-0.5c0-0.3-0.1-0.5-0.4-0.7c-0.2-0.2-0.6-0.4-1-0.6c-0.5-0.2-0.9-0.5-1.3-0.7c-0.4-0.3-0.7-0.6-0.9-1
			s-0.4-0.9-0.4-1.4c0-0.5,0.1-1,0.4-1.4s0.6-0.8,1.1-1s1.1-0.4,1.8-0.4c0.5,0,1,0.1,1.4,0.2c0.4,0.1,0.8,0.2,1.1,0.4
			c0.3,0.1,0.5,0.2,0.6,0.3v2.3c-0.4-0.3-0.8-0.5-1.2-0.8c-0.5-0.2-0.9-0.3-1.5-0.3c-0.3,0-0.6,0.1-0.7,0.2s-0.2,0.3-0.2,0.5
			c0,0.2,0.1,0.4,0.2,0.5c0.2,0.1,0.4,0.3,0.8,0.5c0.7,0.4,1.2,0.7,1.7,1c0.4,0.3,0.7,0.6,1,1C289.1,83.7,289.2,84.2,289.2,84.8z"/>
		<path class="st7" d="M300.5,86.9c-0.4,0.2-0.8,0.4-1.1,0.5c-0.4,0.1-0.8,0.2-1.2,0.3c-0.4,0.1-0.8,0.1-1.2,0.1
			c-0.8,0-1.5-0.1-2.1-0.4s-1.2-0.6-1.6-1.1c-0.5-0.5-0.8-1-1-1.6c-0.2-0.6-0.3-1.3-0.3-2c0-0.9,0.1-1.6,0.4-2.2
			c0.3-0.6,0.6-1.2,1.1-1.6s1-0.7,1.7-0.9s1.3-0.3,2-0.3c1,0,2.2,0.2,3.5,0.8V81c-0.4-0.3-0.9-0.6-1.3-0.8c-0.4-0.2-0.9-0.3-1.5-0.3
			c-0.5,0-1,0.1-1.5,0.3s-0.8,0.6-1.1,1s-0.4,0.9-0.4,1.5c0,0.5,0.1,1,0.4,1.4s0.6,0.7,1,1c0.4,0.2,0.9,0.4,1.5,0.4
			c0.4,0,0.9-0.1,1.2-0.2c0.4-0.1,0.7-0.2,1-0.4c0.3-0.1,0.5-0.3,0.8-0.5V86.9z"/>
		<path class="st7" d="M313.2,87.6h-2.7v-3.9h-4.1v3.9h-2.7v-9.9h2.7v3.6h4.1v-3.6h2.7V87.6z"/>
		<path class="st7" d="M326.4,82.7c0,0.9-0.2,1.8-0.6,2.5c-0.4,0.8-1,1.4-1.7,1.9c-0.8,0.5-1.7,0.7-2.8,0.7c-1.1,0-2.1-0.2-2.8-0.7
			c-0.8-0.5-1.3-1.1-1.7-1.9s-0.6-1.6-0.6-2.5c0-0.9,0.2-1.7,0.6-2.5s0.9-1.4,1.7-1.9s1.7-0.7,2.8-0.7c0.8,0,1.6,0.1,2.2,0.4
			s1.2,0.6,1.6,1.1c0.4,0.5,0.7,1,1,1.6C326.3,81.3,326.4,82,326.4,82.7z M323.6,82.7c0-0.4,0-0.7-0.1-1c-0.1-0.3-0.2-0.6-0.5-0.8
			c-0.2-0.2-0.4-0.4-0.7-0.5c-0.3-0.1-0.6-0.2-1-0.2c-0.7,0-1.3,0.2-1.7,0.7c-0.4,0.5-0.6,1.1-0.6,1.8s0.2,1.4,0.6,1.8
			c0.4,0.5,1,0.7,1.7,0.7c0.5,0,0.9-0.1,1.3-0.3c0.4-0.2,0.6-0.5,0.8-0.9C323.5,83.6,323.6,83.2,323.6,82.7z"/>
		<path class="st7" d="M339.1,82.7c0,0.9-0.2,1.8-0.6,2.5c-0.4,0.8-1,1.4-1.7,1.9c-0.8,0.5-1.7,0.7-2.8,0.7c-1.1,0-2.1-0.2-2.8-0.7
			c-0.8-0.5-1.3-1.1-1.7-1.9s-0.6-1.6-0.6-2.5c0-0.9,0.2-1.7,0.6-2.5s0.9-1.4,1.7-1.9s1.7-0.7,2.8-0.7c0.8,0,1.6,0.1,2.2,0.4
			s1.2,0.6,1.6,1.1c0.4,0.5,0.7,1,1,1.6C339,81.3,339.1,82,339.1,82.7z M336.3,82.7c0-0.4,0-0.7-0.1-1c-0.1-0.3-0.2-0.6-0.5-0.8
			c-0.2-0.2-0.4-0.4-0.7-0.5c-0.3-0.1-0.6-0.2-1-0.2c-0.7,0-1.3,0.2-1.7,0.7c-0.4,0.5-0.6,1.1-0.6,1.8s0.2,1.4,0.6,1.8
			c0.4,0.5,1,0.7,1.7,0.7c0.5,0,0.9-0.1,1.3-0.3c0.4-0.2,0.6-0.5,0.8-0.9C336.2,83.6,336.3,83.2,336.3,82.7z"/>
		<path class="st7" d="M348.9,87.6h-6.8v-9.9h2.7v7.5h4.1V87.6z"/>
	</g>
</g>
</svg>
